inDegrees=yes
name=IK-live
DataType=double
version=3
OpenSimVersion=4.1
endheader
time	pelvis_tilt	pelvis_list	pelvis_rotation	pelvis_tx	pelvis_ty	pelvis_tz	hip_flexion_r	hip_adduction_r	hip_rotation_r	knee_angle_r	ankle_angle_r	subtalar_angle_r	mtp_angle_r	hip_flexion_l	hip_adduction_l	hip_rotation_l	knee_angle_l	ankle_angle_l	subtalar_angle_l	mtp_angle_l	lumbar_extension	lumbar_bending	lumbar_rotation	neck_flex	neck_latbend	neck_rot	arm_flex_r	arm_add_r	arm_rot_r	elbow_flex_r	pro_sup_r	wrist_flex_r	wrist_dev_r	arm_flex_l	arm_add_l	arm_rot_l	elbow_flex_l	pro_sup_l	wrist_flex_l	wrist_dev_l
0	-2.574504810774898	14.95171075964592	-254.4052291257578	0.2341366603171506	0.04326292228651554	-1.326684523481465	-22.57117169827992	-1.591976316804377	-3.241458145969817	5.899560354604904	2.451982624139334	1.987972377786656	0	-24.74788768789517	-3.395140484746916	-11.58000132048591	9.793848132074926	-0.4439473045988533	4.250290820099795	0	-21.37711699760957	1.659277491615732	3.206407148933037	0	0	0	2.809027167011453	-15.16827494474185	31.12101061126744	19.47191576970036	28.84214411443777	0	1.636289232660507	7.737370640466675	-13.31232463739367	40.79861370791151	19.47787186916465	35.60271207094674	0	1.636289232660507
2.7003104	-2.542618645780808	15.04347750526829	-254.4636295756024	0.2341366603171506	0.04326292228651554	-1.326684523481465	-22.57117169827992	-1.591976316804377	-3.241458145969817	5.899560354604904	2.451982624139334	1.987972377786656	0	-24.74788768789517	-3.395140484746916	-11.58000132048591	9.793848132074926	-0.4439473045988533	4.250290820099795	0	-21.37711699760957	1.659277491615732	3.206407148933037	0	0	0	89.29892730899449	-14.9980116572252	-0.3110090751096276	75.1856645647438	44.94443850945714	0	4.982035867499143	89.40901127958156	-15.01994120552422	-0.4035869715796263	75.17981157469946	44.96974117565419	0	4.982035867499143
5.9253337	4.750365369587914	14.52018069383527	76.70103903778087	0.2341366603171506	0.04326292228651554	-1.326684523481465	-22.57117169827992	-1.591976316804377	-3.241458145969817	5.899560354604904	2.451982624139334	1.987972377786656	0	-24.74788768789517	-3.395140484746916	-11.58000132048591	9.793848132074926	-0.4439473045988533	4.250290820099795	0	-21.37711699760957	1.659277491615732	3.206407148933037	0	0	0	17.51728382316508	-15.11598827848078	20.00861399589737	80.48264544054265	43.57020345309084	0	6.940326639757545	21.76186976911858	-13.83667826568751	26.21553476727831	81.83526051279115	43.61832362946691	0	6.940326639757545
6.5249476	7.129530714461501	13.50664685649229	66.57220247243424	0.2341366603171506	0.04326292228651554	-1.326684523481465	-22.57117169827992	-1.591976316804377	-3.241458145969817	5.899560354604904	2.451982624139334	1.987972377786656	0	-24.74788768789517	-3.395140484746916	-11.58000132048591	9.793848132074926	-0.4439473045988533	4.250290820099795	0	-21.37711699760957	1.659277491615732	3.206407148933037	0	0	0	81.10908019686197	-14.99134016924753	-1.115240161869916	75.86608407837697	44.86105288807032	0	4.967342997707126	81.78130316076023	-15.08679295513153	-1.166790557767576	75.85198721708537	44.9139736878032	0	4.967342997707126
7.0246407	13.87889904076638	3.912162519779987	7.980273748637626	0.2341366603171506	0.04326292228651554	-1.326684523481465	-22.57117169827992	-1.591976316804377	-3.241458145969817	5.899560354604904	2.451982624139334	1.987972377786656	0	-24.74788768789517	-3.395140484746916	-11.58000132048591	9.793848132074926	-0.4439473045988533	4.250290820099795	0	-21.37711699760957	1.659277491615732	3.206407148933037	0	0	0	0.7804615241161876	-15.17650141101296	33.31106267739579	7.012250362886709	24.87493539939533	0	0.01275039354234278	5.871416052482106	-13.22980328816225	43.89838934070201	6.82702082227532	33.48049403039408	0	0.01275039354234278
7.6492501	14.73041107097638	-5.40662312005577	-17.57751505360466	0.2341366603171506	0.04326292228651554	-1.326684523481465	-22.57117169827992	-1.591976316804377	-3.241458145969817	5.899560354604904	2.451982624139334	1.987972377786656	0	-24.74788768789517	-3.395140484746916	-11.58000132048591	9.793848132074926	-0.4439473045988533	4.250290820099795	0	-21.37711699760957	1.659277491615732	3.206407148933037	0	0	0	0.780897857903904	-15.17649950173756	33.31049627392554	7.019787969791803	24.8763910150024	0	0.01341417313820709	5.871813259261017	-13.22982244231414	43.89754550326965	6.83475555688461	33.48121012748769	0	0.01341417313820709
8.1499451	11.0869399646276	-13.55158147160888	-49.56080967009827	0.2341366603171506	0.04326292228651554	-1.326684523481465	-22.57117169827992	-1.591976316804377	-3.241458145969817	5.899560354604904	2.451982624139334	1.987972377786656	0	-24.74788768789517	-3.395140484746916	-11.58000132048591	9.793848132074926	-0.4439473045988533	4.250290820099795	0	-21.37711699760957	1.659277491615732	3.206407148933037	0	0	0	40.4435641885355	-15.04575227076548	7.806562826404035	77.99665889404768	45.88177086994421	0	5.757604055682735	43.58120821512689	-14.54098323557181	11.45038057634125	78.72669429331046	45.50184706157448	0	5.757604055682735
12.2773743	7.405757919133392	-12.54345519565728	-56.02412217012508	0.2341366603171506	0.04326292228651554	-1.326684523481465	-22.57117169827992	-1.591976316804377	-3.241458145969817	5.899560354604904	2.451982624139334	1.987972377786656	0	-24.74788768789517	-3.395140484746916	-11.58000132048591	9.793848132074926	-0.4439473045988533	4.250290820099795	0	-21.37711699760957	1.659277491615732	3.206407148933037	0	0	0	87.98268821481936	-15.00069389840705	-0.02616512940533203	75.16768372150305	45.0355617172855	0	5.039194794817401	88.04009986943096	-14.99304378858061	-0.3308940998349846	75.15015385994099	45.02048714544645	0	5.039194794817401
12.9249761	1.183259101133312	-14.32616359873819	-81.62804802671035	0.2341366603171506	0.04326292228651554	-1.326684523481465	-22.57117169827992	-1.591976316804377	-3.241458145969817	5.899560354604904	2.451982624139334	1.987972377786656	0	-24.74788768789517	-3.395140484746916	-11.58000132048591	9.793848132074926	-0.4439473045988533	4.250290820099795	0	-21.37711699760957	1.659277491615732	3.206407148933037	0	0	0	89.74141080579491	-14.99933016184103	-0.09369980412675415	75.17966913366077	45.0132492759365	0	5.003859303815704	89.78166037121534	-15.00671795669987	-0.123776682170246	75.18180633839125	45.00725480775365	0	5.003859303815704
13.3996794	-10.08758573739526	-7.694304388132474	-129.3980955729687	0.2341366603171506	0.04326292228651554	-1.326684523481465	-22.57117169827992	-1.591976316804377	-3.241458145969817	5.899560354604904	2.451982624139334	1.987972377786656	0	-24.74788768789517	-3.395140484746916	-11.58000132048591	9.793848132074926	-0.4439473045988533	4.250290820099795	0	-21.37711699760957	1.659277491615732	3.206407148933037	0	0	0	0.772800894299206	-15.17653492749153	33.32100419381002	6.877408846948004	24.84940212666246	0	0.001113696696849355	5.864442402262897	-13.22946704558004	43.91319981645486	6.688463465086694	33.46793528346803	0	0.001113696696849355
13.8743883	-14.2333470323296	-3.047432042349388	-162.1400204125397	0.2341366603171506	0.04326292228651554	-1.326684523481465	-22.57117169827992	-1.591976316804377	-3.241458145969817	5.899560354604904	2.451982624139334	1.987972377786656	0	-24.74788768789517	-3.395140484746916	-11.58000132048591	9.793848132074926	-0.4439473045988533	4.250290820099795	0	-21.37711699760957	1.659277491615732	3.206407148933037	0	0	0	83.37694157597741	-14.99751491332516	-0.254154049784704	74.89715563046424	44.89581549162907	0	4.971827159128416	83.7995909265763	-15.0249194920792	-0.3081341298151811	74.90013065827775	44.94495946186314	0	4.971827159128416
15.1995742	-13.25965634923472	24.04557076567147	-265.5459853057557	0.2341366603171506	0.04326292228651554	-1.326684523481465	-22.57117169827992	-1.591976316804377	-3.241458145969817	5.899560354604904	2.451982624139334	1.987972377786656	0	-24.74788768789517	-3.395140484746916	-11.58000132048591	9.793848132074926	-0.4439473045988533	4.250290820099795	0	-21.37711699760957	1.659277491615732	3.206407148933037	0	0	0	0.7835090374485674	-15.17648807222805	33.30710374036256	7.066426153492058	24.88513066854398	0	0.01740240960132042	5.874190144695871	-13.22993710501532	43.89248965896768	6.882700261984321	33.48550524066365	0	0.01740240960132042
15.3744615	-24.73918315950626	19.6584793104926	-263.1916517018828	0.2341366603171506	0.04326292228651554	-1.326684523481465	-22.57117169827992	-1.591976316804377	-3.241458145969817	5.899560354604904	2.451982624139334	1.987972377786656	0	-24.74788768789517	-3.395140484746916	-11.58000132048591	9.793848132074926	-0.4439473045988533	4.250290820099795	0	-21.37711699760957	1.659277491615732	3.206407148933037	0	0	0	0.7849542032708483	-15.17648174414576	33.3052250172757	7.091438541647016	24.88996516398678	0	0.01960722566458181	5.875505590815616	-13.23000058938227	43.88968990451148	6.908365452686969	33.48788323035263	0	0.01960722566458181
15.5523629	-19.14452068872803	-17.84053414543105	-239.2190194990486	0.2341366603171506	0.04326292228651554	-1.326684523481465	-22.57117169827992	-1.591976316804377	-3.241458145969817	5.899560354604904	2.451982624139334	1.987972377786656	0	-24.74788768789517	-3.395140484746916	-11.58000132048591	9.793848132074926	-0.4439473045988533	4.250290820099795	0	-21.37711699760957	1.659277491615732	3.206407148933037	0	0	0	0.7853970441060611	-15.17647978661393	33.30463598471588	7.100515771302588	24.89156102460647	0	0.02035029952133104	5.87590822609831	-13.23002022788302	43.88880647458713	6.917703129996561	33.48865864570107	0	0.02035029952133104
15.7252575	-20.73205637175196	-16.21362716987691	-228.8058125354803	0.2341366603171506	0.04326292228651554	-1.326684523481465	-22.57117169827992	-1.591976316804377	-3.241458145969817	5.899560354604904	2.451982624139334	1.987972377786656	0	-24.74788768789517	-3.395140484746916	-11.58000132048591	9.793848132074926	-0.4439473045988533	4.250290820099795	0	-21.37711699760957	1.659277491615732	3.206407148933037	0	0	0	82.82634490688665	-14.99335220809255	-0.779451445194661	75.6088732090678	44.78144024377838	0	4.964607449156255	83.40715257397078	-15.06664866071657	-0.9378143928515825	75.59835847298071	44.85996537327284	0	4.964607449156255
15.9001547	-22.96851455715799	5.486040575967567	-253.0415185267133	0.2341366603171506	0.04326292228651554	-1.326684523481465	-22.57117169827992	-1.591976316804377	-3.241458145969817	5.899560354604904	2.451982624139334	1.987972377786656	0	-24.74788768789517	-3.395140484746916	-11.58000132048591	9.793848132074926	-0.4439473045988533	4.250290820099795	0	-21.37711699760957	1.659277491615732	3.206407148933037	0	0	0	0.7858439636953766	-15.17647784965228	33.30406955689058	7.106435037933744	24.89292993583001	0	0.02095795754619011	5.876315534854173	-13.23003965956195	43.88796860009629	6.923733334938597	33.48934298524098	0	0.02095795754619011
16.0750463	-17.95330385469786	25.62161085196067	-268.042461220683	0.2341366603171506	0.04326292228651554	-1.326684523481465	-22.57117169827992	-1.591976316804377	-3.241458145969817	5.899560354604904	2.451982624139334	1.987972377786656	0	-24.74788768789517	-3.395140484746916	-11.58000132048591	9.793848132074926	-0.4439473045988533	4.250290820099795	0	-21.37711699760957	1.659277491615732	3.206407148933037	0	0	0	0.7839691312857854	-15.17648605612646	33.30650452320302	7.074589076695138	24.88668009107645	0	0.01811047558489768	5.874608902747001	-13.22995733089783	43.89159617553628	6.891083110143054	33.48626635021667	0	0.01811047558489768
16.2499314	-12.90665431126392	35.25986671110395	80.00214223142945	0.2341366603171506	0.04326292228651554	-1.326684523481465	-22.57117169827992	-1.591976316804377	-3.241458145969817	5.899560354604904	2.451982624139334	1.987972377786656	0	-24.74788768789517	-3.395140484746916	-11.58000132048591	9.793848132074926	-0.4439473045988533	4.250290820099795	0	-21.37711699760957	1.659277491615732	3.206407148933037	0	0	0	30.10056469414384	-15.0627885617024	8.830093114472819	65.26834455356952	47.0306263634954	0	6.664104183665778	33.25939200431721	-14.37025639701851	13.02409438353686	66.04809186480081	46.95044545172214	0	6.664104183665778
